<?xml version="1.0" encoding="utf-8"?>
<!-- Generator: Adobe Illustrator 28.2.0, SVG Export Plug-In . SVG Version: 6.00 Build 0)  -->
<svg version="1.1" id="Laag_1" xmlns="http://www.w3.org/2000/svg" xmlns:xlink="http://www.w3.org/1999/xlink" x="0px" y="0px"
	 viewBox="0 0 529 529" style="enable-background:new 0 0 529 529;" xml:space="preserve">
<style type="text/css">
	.st0{fill:#DD7733;}
</style>
<g>
	<path class="st0" d="M48,32.1c0-8.5,1.6-16,4.9-22.4c3.3-6.3,10.4-9.5,21.6-9.5h115.8c-5.5,3.5-10.4,8.7-14.4,15.5
		c-4.1,6.8-6,17.3-6,31.4v128L315.9,0.3h142.3L251.6,241.8L481,528.8H330.3L175.2,330.4l-5.3,6V497c0,21.2-8.8,31.8-26.5,31.8H74.5
		c-10.1,0-17-2.7-20.8-7.9c-3.8-5.3-5.7-13.2-5.7-23.8L48,32.1z M147.2,362.9l-1.6,1.6h1.6V362.9z"/>
</g>
</svg>
