<?xml version="1.0" encoding="UTF-8"?>
<svg id="Laag_2" data-name="Laag 2" xmlns="http://www.w3.org/2000/svg" viewBox="0 0 450.58 75.54">
  <defs>
    <style>
      .cls-1 {
        fill: #FFFFFF;
        stroke-width: 0px;
      }

      .cls-2 {
        fill: none;
        stroke: #dd7732;
        stroke-miterlimit: 10;
        stroke-width: 4px;
      }
    </style>
  </defs>
  <g id="Tekst">
    <g>
      <path class="cls-1" d="M8,17.06c0-.99.19-1.85.57-2.59.38-.73,1.21-1.1,2.5-1.1h13.41c-.64.41-1.2,1.01-1.67,1.8-.47.79-.7,2-.7,3.64v14.82l16.92-20.25h16.48l-23.93,27.97,26.57,33.23h-17.45l-17.97-22.97-.61.7v18.59c0,2.45-1.02,3.68-3.07,3.68h-7.98c-1.17,0-1.97-.31-2.41-.92-.44-.61-.66-1.53-.66-2.76V17.06ZM19.49,55.37l-.18.18h.18v-.18Z"/>
      <path class="cls-1" d="M62.67,72.69c.79-.96,1.18-2.41,1.18-4.34V13.37h33.32c1.99,0,3.48-.26,4.47-.79.99-.53,1.84-1.11,2.54-1.75v4.03c0,2.81-.7,5.12-2.1,6.93-1.4,1.81-3.57,2.72-6.49,2.72h-17.71v12.71h17.62c1.99,0,3.48-.25,4.47-.75.99-.5,1.84-1.07,2.54-1.71v3.95c0,2.86-.7,5.2-2.1,7.01-1.4,1.81-3.57,2.72-6.49,2.72h-16.04v15.08h19.9c1.93,0,3.4-.26,4.43-.79,1.02-.53,1.85-1.11,2.5-1.75v4.03c0,2.81-.69,5.1-2.06,6.88-1.37,1.78-3.55,2.67-6.53,2.67h-36.12c.99-.29,1.88-.92,2.67-1.89Z"/>
      <path class="cls-1" d="M112.33,17.06c0-.99.19-1.85.57-2.59.38-.73,1.21-1.1,2.5-1.1h13.41c-.64.41-1.2,1.01-1.67,1.8-.47.79-.7,2-.7,3.64v52.08c0,2.45-1.02,3.68-3.07,3.68h-7.98c-1.17,0-1.97-.31-2.41-.92-.44-.61-.66-1.53-.66-2.76V17.06Z"/>
      <path class="cls-1" d="M158.1,75.54c-2.16,0-4.3-.18-6.4-.53-2.1-.35-4.12-.79-6.05-1.32-1.93-.53-3.68-1.11-5.26-1.75-1.58-.64-2.92-1.28-4.03-1.93l-.79-.53c.41-3.33,1.13-5.67,2.15-7.01,1.02-1.34,2.1-2.13,3.24-2.37,1.14-.23,2.28-.12,3.42.35,1.14.47,2.06.85,2.76,1.14,1.69.64,3.4,1.18,5.13,1.62,1.72.44,3.34.66,4.87.66,3.39,0,5.87-.61,7.45-1.84,1.58-1.23,2.37-2.83,2.37-4.82,0-2.22-.58-3.86-1.75-4.91s-3.3-1.96-6.4-2.72l-6.84-1.84h.09c-2.1-.53-4.06-1.24-5.87-2.15-1.81-.91-3.39-2.06-4.73-3.46-1.35-1.4-2.41-3.07-3.2-5-.79-1.93-1.18-4.18-1.18-6.75s.5-4.75,1.49-6.88c.99-2.13,2.45-4.02,4.38-5.65,1.93-1.64,4.31-2.92,7.15-3.86,2.83-.93,6.09-1.4,9.78-1.4,4.33,0,8.14.5,11.44,1.49,3.3.99,6.21,2.34,8.72,4.03-.88,2.75-1.9,4.69-3.07,5.83-1.17,1.14-2.4,1.81-3.68,2.02-1.29.21-2.56.1-3.81-.31-1.26-.41-2.41-.76-3.46-1.05-1.87-.53-3.83-.79-5.87-.79-2.57,0-4.65.51-6.22,1.53-1.58,1.02-2.37,2.44-2.37,4.25s.41,3.21,1.23,4.38c.82,1.17,2.54,2.1,5.17,2.81h-.09c1.11.23,2.22.48,3.33.75,1.11.26,2.22.54,3.33.83,2.4.64,4.62,1.4,6.66,2.28,2.04.88,3.81,1.99,5.3,3.33,1.49,1.35,2.66,2.97,3.51,4.87.85,1.9,1.27,4.19,1.27,6.88,0,2.86-.51,5.51-1.53,7.93-1.02,2.43-2.53,4.52-4.52,6.27-1.99,1.75-4.41,3.13-7.28,4.12-2.86.99-6.14,1.49-9.82,1.49Z"/>
      <path class="cls-1" d="M189.09,72.69c.79-.96,1.18-2.41,1.18-4.34V13.37h33.32c1.99,0,3.48-.26,4.47-.79.99-.53,1.84-1.11,2.54-1.75v4.03c0,2.81-.7,5.12-2.1,6.93-1.4,1.81-3.57,2.72-6.49,2.72h-17.71v12.71h17.62c1.99,0,3.48-.25,4.47-.75.99-.5,1.84-1.07,2.54-1.71v3.95c0,2.86-.7,5.2-2.1,7.01-1.4,1.81-3.57,2.72-6.49,2.72h-16.04v15.08h19.9c1.93,0,3.4-.26,4.43-.79,1.02-.53,1.85-1.11,2.5-1.75v4.03c0,2.81-.69,5.1-2.06,6.88-1.37,1.78-3.55,2.67-6.53,2.67h-36.12c.99-.29,1.88-.92,2.67-1.89Z"/>
      <path class="cls-1" d="M291.71,24.69v46.2c0,2.45-1.02,3.68-3.07,3.68h-7.98c-1.17,0-1.97-.31-2.41-.92-.44-.61-.66-1.53-.66-2.76V24.69h-18.68c.82-.47,1.52-1.15,2.1-2.06.58-.91.88-2.03.88-3.38v-1.32c0-1.93.55-3.17,1.67-3.73,1.11-.55,2.31-.83,3.59-.83h34.54c1.99,0,3.49-.26,4.52-.79,1.02-.53,1.86-1.11,2.5-1.75v4.12c0,2.81-.7,5.13-2.1,6.97-1.4,1.84-3.57,2.76-6.49,2.76h-8.42Z"/>
      <path class="cls-1" d="M316.17,13.37h21.48c7.25,0,12.8,1.65,16.66,4.95,3.86,3.3,5.79,7.88,5.79,13.72,0,2.05-.29,3.96-.88,5.74-.58,1.78-1.39,3.42-2.41,4.91-1.02,1.49-2.21,2.79-3.55,3.9-1.35,1.11-2.78,2.02-4.3,2.72h.44l15.61,25.25h-15.96l-12.36-22.53h-6.58v18.85c0,2.45-1.02,3.68-3.07,3.68h-7.8c-1.17,0-1.97-.31-2.41-.92-.44-.61-.66-1.53-.66-2.76V13.37ZM336.16,41.52c2.75,0,5.1-.73,7.06-2.19,1.96-1.46,2.94-3.74,2.94-6.84,0-2.69-.88-4.76-2.63-6.22-1.75-1.46-4.21-2.19-7.36-2.19h-6.05v17.45h6.05Z"/>
      <path class="cls-1" d="M370.71,17.06c0-.99.19-1.85.57-2.59.38-.73,1.21-1.1,2.5-1.1h13.41c-.64.41-1.2,1.01-1.67,1.8-.47.79-.7,2-.7,3.64v52.08c0,2.45-1.02,3.68-3.07,3.68h-7.98c-1.17,0-1.97-.31-2.41-.92-.44-.61-.66-1.53-.66-2.76V17.06Z"/>
      <path class="cls-1" d="M422.26,75.45c-3.51,0-6.94-.66-10.3-1.97-3.36-1.32-6.34-3.26-8.94-5.83-2.6-2.57-4.69-5.8-6.27-9.69-1.58-3.89-2.37-8.43-2.37-13.63v-1.32c0-4.97.77-9.37,2.32-13.2,1.55-3.83,3.62-7.03,6.22-9.6,2.6-2.57,5.6-4.52,8.99-5.83,3.39-1.32,6.93-1.97,10.61-1.97s7.03.61,10.39,1.84c3.36,1.23,6.36,3.1,8.99,5.61,2.63,2.51,4.73,5.69,6.31,9.51,1.58,3.83,2.37,8.34,2.37,13.55v1.4c0,5.03-.8,9.47-2.41,13.33-1.61,3.86-3.73,7.1-6.36,9.73-2.63,2.63-5.64,4.63-9.03,6.01s-6.9,2.06-10.52,2.06ZM422.61,64.31c1.75,0,3.43-.42,5.04-1.27,1.61-.85,3.04-2.07,4.3-3.68,1.26-1.61,2.26-3.58,3.02-5.92.76-2.34,1.14-5,1.14-7.98v-3.24c0-3.1-.37-5.8-1.1-8.11-.73-2.31-1.73-4.24-2.98-5.79-1.26-1.55-2.73-2.72-4.43-3.51-1.7-.79-3.51-1.18-5.44-1.18-1.75,0-3.44.39-5.04,1.18-1.61.79-3.04,1.96-4.3,3.51-1.26,1.55-2.25,3.48-2.98,5.79-.73,2.31-1.1,4.95-1.1,7.93v3.16c0,3.16.38,5.93,1.14,8.33.76,2.4,1.77,4.4,3.02,6.01,1.26,1.61,2.72,2.81,4.38,3.59,1.67.79,3.43,1.18,5.3,1.18Z"/>
    </g>
  </g>
  <g id="Laag_7" data-name="Laag 7">
    <g>
      <path class="cls-2" d="M2,11.06c0-.99.19-1.85.57-2.59.38-.73,1.21-1.1,2.5-1.1h13.41c-.64.41-1.2,1.01-1.67,1.8-.47.79-.7,2-.7,3.64v14.82L33.04,7.37h16.48l-23.93,27.97,26.57,33.23h-17.45l-17.97-22.97-.61.7v18.59c0,2.45-1.02,3.68-3.07,3.68h-7.98c-1.17,0-1.97-.31-2.41-.92-.44-.61-.66-1.53-.66-2.76V11.06ZM13.49,49.37l-.18.18h.18v-.18Z"/>
      <path class="cls-2" d="M56.67,66.69c.79-.96,1.18-2.41,1.18-4.34V7.37h33.32c1.99,0,3.48-.26,4.47-.79.99-.53,1.84-1.11,2.54-1.75v4.03c0,2.81-.7,5.12-2.1,6.93-1.4,1.81-3.57,2.72-6.49,2.72h-17.71v12.71h17.62c1.99,0,3.48-.25,4.47-.75.99-.5,1.84-1.07,2.54-1.71v3.95c0,2.86-.7,5.2-2.1,7.01-1.4,1.81-3.57,2.72-6.49,2.72h-16.04v15.08h19.9c1.93,0,3.4-.26,4.43-.79,1.02-.53,1.85-1.11,2.5-1.75v4.03c0,2.81-.69,5.1-2.06,6.88-1.37,1.78-3.55,2.67-6.53,2.67h-36.12c.99-.29,1.88-.92,2.67-1.89Z"/>
      <path class="cls-2" d="M106.33,11.06c0-.99.19-1.85.57-2.59.38-.73,1.21-1.1,2.5-1.1h13.41c-.64.41-1.2,1.01-1.67,1.8-.47.79-.7,2-.7,3.64v52.08c0,2.45-1.02,3.68-3.07,3.68h-7.98c-1.17,0-1.97-.31-2.41-.92-.44-.61-.66-1.53-.66-2.76V11.06Z"/>
      <path class="cls-2" d="M152.1,69.54c-2.16,0-4.3-.18-6.4-.53-2.1-.35-4.12-.79-6.05-1.32-1.93-.53-3.68-1.11-5.26-1.75-1.58-.64-2.92-1.28-4.03-1.93l-.79-.53c.41-3.33,1.13-5.67,2.15-7.01,1.02-1.34,2.1-2.13,3.24-2.37,1.14-.23,2.28-.12,3.42.35,1.14.47,2.06.85,2.76,1.14,1.69.64,3.4,1.18,5.13,1.62,1.72.44,3.34.66,4.87.66,3.39,0,5.87-.61,7.45-1.84,1.58-1.23,2.37-2.83,2.37-4.82,0-2.22-.58-3.86-1.75-4.91s-3.3-1.96-6.4-2.72l-6.84-1.84h.09c-2.1-.53-4.06-1.24-5.87-2.15-1.81-.91-3.39-2.06-4.73-3.46-1.35-1.4-2.41-3.07-3.2-5-.79-1.93-1.18-4.18-1.18-6.75s.5-4.75,1.49-6.88c.99-2.13,2.45-4.02,4.38-5.65,1.93-1.64,4.31-2.92,7.15-3.86,2.83-.93,6.09-1.4,9.78-1.4,4.33,0,8.14.5,11.44,1.49,3.3.99,6.21,2.34,8.72,4.03-.88,2.75-1.9,4.69-3.07,5.83-1.17,1.14-2.4,1.81-3.68,2.02-1.29.21-2.56.1-3.81-.31-1.26-.41-2.41-.76-3.46-1.05-1.87-.53-3.83-.79-5.87-.79-2.57,0-4.65.51-6.22,1.53-1.58,1.02-2.37,2.44-2.37,4.25s.41,3.21,1.23,4.38c.82,1.17,2.54,2.1,5.17,2.81h-.09c1.11.23,2.22.48,3.33.75,1.11.26,2.22.54,3.33.83,2.4.64,4.62,1.4,6.66,2.28,2.04.88,3.81,1.99,5.3,3.33,1.49,1.35,2.66,2.97,3.51,4.87.85,1.9,1.27,4.19,1.27,6.88,0,2.86-.51,5.51-1.53,7.93-1.02,2.43-2.53,4.52-4.52,6.27-1.99,1.75-4.41,3.13-7.28,4.12-2.86.99-6.14,1.49-9.82,1.49Z"/>
      <path class="cls-2" d="M183.09,66.69c.79-.96,1.18-2.41,1.18-4.34V7.37h33.32c1.99,0,3.48-.26,4.47-.79.99-.53,1.84-1.11,2.54-1.75v4.03c0,2.81-.7,5.12-2.1,6.93-1.4,1.81-3.57,2.72-6.49,2.72h-17.71v12.71h17.62c1.99,0,3.48-.25,4.47-.75.99-.5,1.84-1.07,2.54-1.71v3.95c0,2.86-.7,5.2-2.1,7.01-1.4,1.81-3.57,2.72-6.49,2.72h-16.04v15.08h19.9c1.93,0,3.4-.26,4.43-.79,1.02-.53,1.85-1.11,2.5-1.75v4.03c0,2.81-.69,5.1-2.06,6.88-1.37,1.78-3.55,2.67-6.53,2.67h-36.12c.99-.29,1.88-.92,2.67-1.89Z"/>
      <path class="cls-2" d="M285.71,18.69v46.2c0,2.45-1.02,3.68-3.07,3.68h-7.98c-1.17,0-1.97-.31-2.41-.92-.44-.61-.66-1.53-.66-2.76V18.69h-18.68c.82-.47,1.52-1.15,2.1-2.06.58-.91.88-2.03.88-3.38v-1.32c0-1.93.55-3.17,1.67-3.73,1.11-.55,2.31-.83,3.59-.83h34.54c1.99,0,3.49-.26,4.52-.79,1.02-.53,1.86-1.11,2.5-1.75v4.12c0,2.81-.7,5.13-2.1,6.97-1.4,1.84-3.57,2.76-6.49,2.76h-8.42Z"/>
      <path class="cls-2" d="M310.17,7.37h21.48c7.25,0,12.8,1.65,16.66,4.95,3.86,3.3,5.79,7.88,5.79,13.72,0,2.05-.29,3.96-.88,5.74-.58,1.78-1.39,3.42-2.41,4.91-1.02,1.49-2.21,2.79-3.55,3.9-1.35,1.11-2.78,2.02-4.3,2.72h.44l15.61,25.25h-15.96l-12.36-22.53h-6.58v18.85c0,2.45-1.02,3.68-3.07,3.68h-7.8c-1.17,0-1.97-.31-2.41-.92-.44-.61-.66-1.53-.66-2.76V7.37ZM330.16,35.52c2.75,0,5.1-.73,7.06-2.19,1.96-1.46,2.94-3.74,2.94-6.84,0-2.69-.88-4.76-2.63-6.22-1.75-1.46-4.21-2.19-7.36-2.19h-6.05v17.45h6.05Z"/>
      <path class="cls-2" d="M364.71,11.06c0-.99.19-1.85.57-2.59.38-.73,1.21-1.1,2.5-1.1h13.41c-.64.41-1.2,1.01-1.67,1.8-.47.79-.7,2-.7,3.64v52.08c0,2.45-1.02,3.68-3.07,3.68h-7.98c-1.17,0-1.97-.31-2.41-.92-.44-.61-.66-1.53-.66-2.76V11.06Z"/>
      <path class="cls-2" d="M416.26,69.45c-3.51,0-6.94-.66-10.3-1.97-3.36-1.32-6.34-3.26-8.94-5.83-2.6-2.57-4.69-5.8-6.27-9.69-1.58-3.89-2.37-8.43-2.37-13.63v-1.32c0-4.97.77-9.37,2.32-13.2,1.55-3.83,3.62-7.03,6.22-9.6,2.6-2.57,5.6-4.52,8.99-5.83,3.39-1.32,6.93-1.97,10.61-1.97s7.03.61,10.39,1.84c3.36,1.23,6.36,3.1,8.99,5.61,2.63,2.51,4.73,5.69,6.31,9.51,1.58,3.83,2.37,8.34,2.37,13.55v1.4c0,5.03-.8,9.47-2.41,13.33-1.61,3.86-3.73,7.1-6.36,9.73-2.63,2.63-5.64,4.63-9.03,6.01s-6.9,2.06-10.52,2.06ZM416.61,58.31c1.75,0,3.43-.42,5.04-1.27,1.61-.85,3.04-2.07,4.3-3.68,1.26-1.61,2.26-3.58,3.02-5.92.76-2.34,1.14-5,1.14-7.98v-3.24c0-3.1-.37-5.8-1.1-8.11-.73-2.31-1.73-4.24-2.98-5.79-1.26-1.55-2.73-2.72-4.43-3.51-1.7-.79-3.51-1.18-5.44-1.18-1.75,0-3.44.39-5.04,1.18-1.61.79-3.04,1.96-4.3,3.51-1.26,1.55-2.25,3.48-2.98,5.79-.73,2.31-1.1,4.95-1.1,7.93v3.16c0,3.16.38,5.93,1.14,8.33.76,2.4,1.77,4.4,3.02,6.01,1.26,1.61,2.72,2.81,4.38,3.59,1.67.79,3.43,1.18,5.3,1.18Z"/>
    </g>
  </g>
</svg>